<?xml version="1.0" standalone="yes"?>
<svg xmlns="http://www.w3.org/2000/svg" width="1200" height="1200">
<path style="fill:#433d3f; stroke:none;" d="M0 0L0 1200L1200 1200L1200 0L0 0z"/>
<path style="fill:#aa6342; stroke:none;" d="M294 164L292 168L297 167L296 164L294 164z"/>
<path style="fill:#50609e; stroke:none;" d="M439 184L440 185L439 184z"/>
<path style="fill:#aa6342; stroke:none;" d="M440 184L440 185L444 185L440 184z"/>
<path style="fill:#dba589; stroke:none;" d="M305 575L282 572C291.114 616.041 306.667 659.456 318.116 703C325.566 731.336 329.006 762.697 339.461 790C346.461 808.283 357.559 824.748 369.666 840C389.852 865.43 415.284 885.004 441 904.374C462.462 920.54 482.326 938.394 507 949.691C556.235 972.236 626.012 973.403 677 955.921C711.002 944.264 736.729 921.077 765 899.873C793.233 878.699 819.506 855.846 840.254 827C865.748 791.555 870.046 748.222 880.884 707C888.792 676.926 896.894 646.908 905.421 617C909.6 602.344 915.776 587.056 918 572L895 575C896.002 551.649 898.938 528.356 899.961 505C901.243 475.719 898.757 446.281 900.039 417C900.826 399.035 904.425 381.013 903.985 363C903.028 323.822 891.2 284.519 867.525 253C833.787 208.086 778.859 183.593 723 186.039C700.054 187.044 677.818 193.659 655 195.83C615.543 199.585 573.405 198.659 534 194.83C515.798 193.062 498.25 186.943 480 185.17C438.716 181.159 391.339 188.041 362.286 221.001C330.338 257.246 316.668 304.224 308.92 351C302.387 390.438 296.034 431.984 297.015 472C297.858 506.414 303.524 540.626 305 575z"/>
<path style="fill:#aa6342; stroke:none;" d="M471 184L471 185L475 185L471 184z"/>
<path style="fill:#50609e; stroke:none;" d="M475 184L476 185L475 184z"/>
<path style="fill:#aa6342; stroke:none;" d="M432.667 185.333L433.333 185.667L432.667 185.333M482.667 185.333L483.333 185.667L482.667 185.333z"/>
<path style="fill:#50609e; stroke:none;" d="M484 185L485 186L484 185M426 186L427 187L426 186z"/>
<path style="fill:#aa6342; stroke:none;" d="M427.667 186.333L428.333 186.667L427.667 186.333M489.667 186.333L490.333 186.667L489.667 186.333z"/>
<path style="fill:#50609e; stroke:none;" d="M491 186L492 187L491 186z"/>
<path style="fill:#aa6342; stroke:none;" d="M714 186L714 187L719 187L714 186M743 186L743 187L747 187L743 186z"/>
<path style="fill:#50609e; stroke:none;" d="M747 186L748 187L747 186z"/>
<path style="fill:#aa6342; stroke:none;" d="M422.667 187.333L423.333 187.667L422.667 187.333M495.667 187.333L496.333 187.667L495.667 187.333M705 187L705 188L708 188L705 187M753 187L753 188L756 188L753 187M418 188L419 189L418 188M500.667 188.333L501.333 188.667L500.667 188.333z"/>
<path style="fill:#50609e; stroke:none;" d="M502 188L503 189L502 188z"/>
<path style="fill:#aa6342; stroke:none;" d="M699.667 188.333L700.333 188.667L699.667 188.333M761.667 188.333L762.333 188.667L761.667 188.333M414 189L415 190L414 189M506 189L507 190L506 189M693.667 189.333L694.333 189.667L693.667 189.333M766.667 189.333L767.333 189.667L766.667 189.333M411 190L412 191L411 190M510.667 190.333L511.333 190.667L510.667 190.333M688.667 190.333L689.333 190.667L688.667 190.333M771.667 190.333L772.333 190.667L771.667 190.333M408 191L409 192L408 191M515 191L516 192L515 191M684 191L685 192L684 191M775 191L776 192L775 191z"/>
<path style="fill:#50609e; stroke:none;" d="M776 191L777 192L776 191M405 192L406 193L405 192z"/>
<path style="fill:#aa6342; stroke:none;" d="M406 192L407 193L406 192M519.667 192.333L520.333 192.667L519.667 192.333M679.667 192.333L680.333 192.667L679.667 192.333M779 192L780 193L779 192M403 193L404 194L403 193M524.667 193.333L525.333 193.667L524.667 193.333M674.667 193.333L675.333 193.667L674.667 193.333M782 193L783 194L782 193M401 194L402 195L401 194M531 194L531 195L534 195L531 194M666 194L666 195L669 195L666 194M785 194L786 195L785 194M398 195L399 196L398 195M542 195L542 196L547 196L542 195M653 195L653 196L658 196L653 195M788 195L789 196L788 195M396 196L397 197L396 196M557 196L557 197L565 197L557 196z"/>
<path style="fill:#50609e; stroke:none;" d="M565.667 196.333L566.333 196.667L565.667 196.333M633.667 196.333L634.333 196.667L633.667 196.333z"/>
<path style="fill:#aa6342; stroke:none;" d="M635 196L635 197L643 197L635 196M791 196L792 197L791 196M394 197L395 198L394 197M598 197L598 198L602 198L598 197M794 197L795 198L794 197M392 198L393 199L392 198M796 198L797 199L796 198M390 199L391 200L390 199M798 199L799 200L798 199z"/>
<path style="fill:#50609e; stroke:none;" d="M799 199L800 200L799 199z"/>
<path style="fill:#aa6342; stroke:none;" d="M388 200L389 201L388 200M801 200L802 201L801 200M387 201L388 202L387 201M803 201L804 202L803 201M385 202L386 203L385 202M805 202L806 203L805 202z"/>
<path style="fill:#50609e; stroke:none;" d="M383 203L384 204L383 203z"/>
<path style="fill:#aa6342; stroke:none;" d="M807 203L808 204L807 203M382 204L383 205L382 204M809 204L810 205L809 204M811 205L812 206L811 205M379 206L380 207L379 206M813 206L814 207L813 206M378 207L379 208L378 207M815 207L816 208L815 207M376 208L377 209L376 208z"/>
<path style="fill:#50609e; stroke:none;" d="M817 208L818 209L817 208z"/>
<path style="fill:#aa6342; stroke:none;" d="M375 209L376 210L375 209M818 209L819 210L818 209M820 210L821 211L820 210z"/>
<path style="fill:#50609e; stroke:none;" d="M372 211L373 212L372 211z"/>
<path style="fill:#aa6342; stroke:none;" d="M822 211L823 212L822 211M371 212L372 213L371 212M823 212L824 213L823 212M370 213L371 214L370 213M825 213L826 214L825 213M828 215L829 216L828 215M831 217L832 218L831 217M832 218L833 219L832 218M835 220L836 221L835 220M836 221L837 222L836 221M360 223L361 224L360 223z"/>
<path style="fill:#50609e; stroke:none;" d="M839 223L840 224L839 223z"/>
<path style="fill:#aa6342; stroke:none;" d="M359 224L360 225L359 224M840 224L841 225L840 224z"/>
<path style="fill:#50609e; stroke:none;" d="M358 225L359 226L358 225z"/>
<path style="fill:#aa6342; stroke:none;" d="M841 225L842 226L841 225M842 226L843 227L842 226M355 229L356 230L355 229M354 230L355 231L354 230z"/>
<path style="fill:#50609e; stroke:none;" d="M353 231L354 232L353 231M850 233L851 234L850 233z"/>
<path style="fill:#aa6342; stroke:none;" d="M351 234L352 235L351 234z"/>
<path style="fill:#50609e; stroke:none;" d="M851 234L852 235L851 234z"/>
<path style="fill:#aa6342; stroke:none;" d="M350 235L351 236L350 235M852 235L853 236L852 235M853 236L854 237L853 236M349 237L350 238L349 237M854 237L855 238L854 237M348 238L349 239L348 238z"/>
<path style="fill:#50609e; stroke:none;" d="M855 238L856 239L855 238z"/>
<path style="fill:#aa6342; stroke:none;" d="M346 241L347 242L346 241M859 243L860 244L859 243M344 244L345 245L344 244M860 244L861 245L860 244M861 245L862 246L861 245M343 246L344 247L343 246z"/>
<path style="fill:#50609e; stroke:none;" d="M862 246L863 247L862 246z"/>
<path style="fill:#aa6342; stroke:none;" d="M342 247L343 248L342 247M341 249L342 250L341 249M864 249L865 250L864 249M865 250L866 251L865 250M340 251L341 252L340 251M866 251L867 252L866 251z"/>
<path style="fill:#50609e; stroke:none;" d="M339 252L340 253L339 252M338 254L339 255L338 254z"/>
<path style="fill:#aa6342; stroke:none;" d="M868 254L869 255L868 254z"/>
<path style="fill:#50609e; stroke:none;" d="M869 255L870 256L869 255z"/>
<path style="fill:#aa6342; stroke:none;" d="M337 256L338 257L337 256M870 257L871 258L870 257M336 258L337 259L336 258M871 258L872 259L871 258M335 260L336 261L335 260M873 261L874 262L873 261M334 262L335 263L334 262M874 263L875 264L874 263z"/>
<path style="fill:#50609e; stroke:none;" d="M333 264L334 265L333 264z"/>
<path style="fill:#aa6342; stroke:none;" d="M875 264L876 265L875 264M333 265L334 266L333 265M876 266L877 267L876 266M332 267L333 268L332 267z"/>
<path style="fill:#50609e; stroke:none;" d="M877 267L878 268L877 267z"/>
<path style="fill:#aa6342; stroke:none;" d="M331 269L332 270L331 269M878 269L879 270L878 269M330 271L331 272L330 271M879 271L880 272L879 271M880 273L881 274L880 273M329 274L330 275L329 274z"/>
<path style="fill:#50609e; stroke:none;" d="M881 274L882 275L881 274z"/>
<path style="fill:#aa6342; stroke:none;" d="M328 276L329 277L328 276M882 276L883 277L882 276M883 278L884 279L883 278M327 279L328 280L327 279M884 280L885 281L884 280M326 281L327 282L326 281M885 282L886 283L885 282M325 284L326 285L325 284M886 284L887 285L886 284M887 286L888 287L887 286M324 287L325 288L324 287z"/>
<path style="fill:#50609e; stroke:none;" d="M323 289L324 290L323 289z"/>
<path style="fill:#aa6342; stroke:none;" d="M888 289L889 290L888 289M323 290L324 291L323 290M889 291L890 292L889 291z"/>
<path style="fill:#50609e; stroke:none;" d="M322 292L323 293L322 292z"/>
<path style="fill:#aa6342; stroke:none;" d="M322 293L323 294L322 293M890 294L891 295L890 294z"/>
<path style="fill:#50609e; stroke:none;" d="M321 295L322 296L321 295z"/>
<path style="fill:#aa6342; stroke:none;" d="M321 296L322 297L321 296M891 297L892 298L891 297M320 299L321 300L320 299M892.333 299.667L892.667 300.333L892.333 299.667M319 302L320 303L319 302M893 302L894 303L893 302z"/>
<path style="fill:#50609e; stroke:none;" d="M318 305L319 306L318 305z"/>
<path style="fill:#aa6342; stroke:none;" d="M894 305L895 306L894 305M318 306L319 307L318 306M895 308L896 309L895 308M317.333 309.667L317.667 310.333L317.333 309.667M896 312L897 313L896 312M316.333 313.667L316.667 314.333L316.333 313.667z"/>
<path style="fill:#50609e; stroke:none;" d="M897 315L898 316L897 315z"/>
<path style="fill:#aa6342; stroke:none;" d="M897 316L898 317L897 316M315.333 317.667L315.667 318.333L315.333 317.667z"/>
<path style="fill:#50609e; stroke:none;" d="M898 319L899 320L898 319z"/>
<path style="fill:#aa6342; stroke:none;" d="M898 320L899 321L898 320M314 322L315 323L314 322z"/>
<path style="fill:#50609e; stroke:none;" d="M899 323L900 324L899 323z"/>
<path style="fill:#aa6342; stroke:none;" d="M899 324L900 325L899 324M313.333 326.667L313.667 327.333L313.333 326.667M900 328L901 329L900 328z"/>
<path style="fill:#50609e; stroke:none;" d="M312 330L313 331L312 330z"/>
<path style="fill:#aa6342; stroke:none;" d="M312 331L313 332L312 331M901 334L901 337L902 337L901 334M311 335L312 336L311 335z"/>
<path style="fill:#50609e; stroke:none;" d="M310 339L311 340L310 339z"/>
<path style="fill:#aa6342; stroke:none;" d="M310.333 340.667L310.667 341.333L310.333 340.667z"/>
<path style="fill:#50609e; stroke:none;" d="M902 341L903 342L902 341z"/>
<path style="fill:#aa6342; stroke:none;" d="M902 342L902 345L903 345L902 342z"/>
<path style="fill:#50609e; stroke:none;" d="M309 345L310 346L309 345z"/>
<path style="fill:#aa6342; stroke:none;" d="M309.333 346.667L309.667 347.333L309.333 346.667z"/>
<path style="fill:#50609e; stroke:none;" d="M903 350L904 351L903 350M308 351L309 352L308 351z"/>
<path style="fill:#aa6342; stroke:none;" d="M903 351L903 358L904 358L903 351M308.333 352.667L308.667 353.333L308.333 352.667M307.333 358.667L307.667 359.333L307.333 358.667M306 364L306 367L307 367L306 364z"/>
<path style="fill:#50609e; stroke:none;" d="M305 371L306 372L305 371z"/>
<path style="fill:#aa6342; stroke:none;" d="M305 372L305 375L306 375L305 372M903 373L903 379L904 379L903 373z"/>
<path style="fill:#50609e; stroke:none;" d="M304 379L305 380L304 379M903 379L904 380L903 379z"/>
<path style="fill:#aa6342; stroke:none;" d="M304.333 380.667L304.667 381.333L304.333 380.667z"/>
<path style="fill:#50609e; stroke:none;" d="M303 387L304 388L303 387z"/>
<path style="fill:#aa6342; stroke:none;" d="M303.333 388.667L303.667 389.333L303.333 388.667M902 388L902 393L903 393L902 388z"/>
<path style="fill:#50609e; stroke:none;" d="M302 395L303 396L302 395z"/>
<path style="fill:#aa6342; stroke:none;" d="M302 396L302 399L303 399L302 396M901 400L901 404L902 404L901 400z"/>
<path style="fill:#50609e; stroke:none;" d="M301 404L302 405L301 404M901 404L902 405L901 404z"/>
<path style="fill:#aa6342; stroke:none;" d="M301 405L301 408L302 408L301 405M900 412L900 421L901 421L900 412M300 414L300 417L301 417L300 414z"/>
<path style="fill:#50609e; stroke:none;" d="M900 421L901 422L900 421z"/>
<path style="fill:#aa6342; stroke:none;" d="M299 423L299 426L300 426L299 423M298 432L298 436L299 436L298 432M462 433L463 434L462 433M736 433L736 434L739 434L736 433M437 434L437 435L442 435L437 434z"/>
<path style="fill:#50609e; stroke:none;" d="M442 434L443 435L442 434z"/>
<path style="fill:#433d3f; stroke:none;" d="M358 463C403.239 450.162 444.809 444.135 491 455.627C501.586 458.26 512.212 461.386 523 463.076C526.397 463.608 532.718 464.486 534.716 460.686C537.267 455.833 530.299 450.505 526.999 448.221C515.994 440.603 501.995 437.941 489 436.13C456.963 431.667 422.864 433.51 392 443.671C380.185 447.56 365.793 452.84 358 463z"/>
<path style="fill:#50609e; stroke:none;" d="M472 434L473 435L472 434z"/>
<path style="fill:#aa6342; stroke:none;" d="M473 434L473 435L478 435L473 434M722 434L722 435L727 435L722 434z"/>
<path style="fill:#50609e; stroke:none;" d="M727 434L728 435L727 434z"/>
<path style="fill:#433d3f; stroke:none;" d="M842 463C834.207 452.84 819.815 447.56 808 443.671C777.135 433.511 743.032 431.667 711 436.13C698.005 437.941 684.006 440.603 673.001 448.221C669.701 450.505 662.733 455.833 665.284 460.686C667.282 464.486 673.603 463.608 677 463.076C687.788 461.386 698.414 458.26 709 455.627C755.26 444.118 796.699 450.24 842 463z"/>
<path style="fill:#50609e; stroke:none;" d="M757 434L758 435L757 434z"/>
<path style="fill:#aa6342; stroke:none;" d="M758 434L758 435L763 435L758 434M428.667 435.333L429.333 435.667L428.667 435.333z"/>
<path style="fill:#50609e; stroke:none;" d="M430 435L431 436L430 435M484 435L485 436L484 435z"/>
<path style="fill:#aa6342; stroke:none;" d="M485 435L485 436L488 436L485 435M712 435L712 436L715 436L712 435z"/>
<path style="fill:#50609e; stroke:none;" d="M715 435L716 436L715 435M769 435L770 436L769 435z"/>
<path style="fill:#aa6342; stroke:none;" d="M770.667 435.333L771.333 435.667L770.667 435.333M421.667 436.333L422.333 436.667L421.667 436.333z"/>
<path style="fill:#50609e; stroke:none;" d="M491 436L492 437L491 436z"/>
<path style="fill:#aa6342; stroke:none;" d="M492.667 436.333L493.333 436.667L492.667 436.333M706.667 436.333L707.333 436.667L706.667 436.333z"/>
<path style="fill:#50609e; stroke:none;" d="M708 436L709 437L708 436z"/>
<path style="fill:#aa6342; stroke:none;" d="M777.667 436.333L778.333 436.667L777.667 436.333M415.667 437.333L416.333 437.667L415.667 437.333M498 437L499 438L498 437M701 437L702 438L701 437M783.667 437.333L784.333 437.667L783.667 437.333M410.667 438.333L411.333 438.667L410.667 438.333M502.667 438.333L503.333 438.667L502.667 438.333M696.667 438.333L697.333 438.667L696.667 438.333M788.667 438.333L789.333 438.667L788.667 438.333M406 439L407 440L406 439z"/>
<path style="fill:#50609e; stroke:none;" d="M506 439L507 440L506 439z"/>
<path style="fill:#aa6342; stroke:none;" d="M507 439L508 440L507 439M692 439L693 440L692 439z"/>
<path style="fill:#50609e; stroke:none;" d="M693 439L694 440L693 439z"/>
<path style="fill:#aa6342; stroke:none;" d="M793 439L794 440L793 439M402 440L403 441L402 440M510 440L511 441L510 440M689 440L690 441L689 440z"/>
<path style="fill:#50609e; stroke:none;" d="M796 440L797 441L796 440z"/>
<path style="fill:#aa6342; stroke:none;" d="M797 440L798 441L797 440M398 441L399 442L398 441z"/>
<path style="fill:#50609e; stroke:none;" d="M399 441L400 442L399 441z"/>
<path style="fill:#aa6342; stroke:none;" d="M513 441L514 442L513 441M686 441L687 442L686 441z"/>
<path style="fill:#50609e; stroke:none;" d="M800 441L801 442L800 441z"/>
<path style="fill:#aa6342; stroke:none;" d="M801 441L802 442L801 441M395 442L396 443L395 442z"/>
<path style="fill:#50609e; stroke:none;" d="M515 442L516 443L515 442z"/>
<path style="fill:#aa6342; stroke:none;" d="M516 442L517 443L516 442M683 442L684 443L683 442z"/>
<path style="fill:#50609e; stroke:none;" d="M684 442L685 443L684 442z"/>
<path style="fill:#aa6342; stroke:none;" d="M804 442L805 443L804 442M297 443L297 448L298 448L297 443M391.667 443.333L392.333 443.667L391.667 443.333M518 443L519 444L518 443M681 443L682 444L681 443M807.667 443.333L808.333 443.667L807.667 443.333M388.667 444.333L389.333 444.667L388.667 444.333M520 444L521 445L520 444M679 444L680 445L679 444M810.667 444.333L811.333 444.667L810.667 444.333M386 445L387 446L386 445M522 445L523 446L522 445M677 445L678 446L677 445M813 445L814 446L813 445M383 446L384 447L383 446z"/>
<path style="fill:#50609e; stroke:none;" d="M384 446L385 447L384 446z"/>
<path style="fill:#aa6342; stroke:none;" d="M524 446L525 447L524 446M675 446L676 447L675 446z"/>
<path style="fill:#50609e; stroke:none;" d="M815 446L816 447L815 446z"/>
<path style="fill:#aa6342; stroke:none;" d="M816 446L817 447L816 446M381 447L382 448L381 447M818 447L819 448L818 447M379 448L380 449L379 448z"/>
<path style="fill:#50609e; stroke:none;" d="M431 448L432 449L431 448z"/>
<path style="fill:#aa6342; stroke:none;" d="M432 448L432 449L450 449L432 448M527 448L528 449L527 448M672 448L673 449L672 448M750 448L750 449L768 449L750 448z"/>
<path style="fill:#50609e; stroke:none;" d="M768 448L769 449L768 448z"/>
<path style="fill:#aa6342; stroke:none;" d="M820 448L821 449L820 448M376 449L377 450L376 449z"/>
<path style="fill:#50609e; stroke:none;" d="M377 449L378 450L377 449z"/>
<path style="fill:#aa6342; stroke:none;" d="M420 449L420 450L424 450L420 449M456 449L456 450L460 450L456 449M528 449L529 450L528 449M671 449L672 450L671 449M740 449L740 450L744 450L740 449M776 449L776 450L780 450L776 449z"/>
<path style="fill:#50609e; stroke:none;" d="M822 449L823 450L822 449z"/>
<path style="fill:#aa6342; stroke:none;" d="M823 449L824 450L823 449M374 450L375 451L374 450M412 450L412 451L415 451L412 450M465.667 450.333L466.333 450.667L465.667 450.333z"/>
<path style="fill:#50609e; stroke:none;" d="M467 450L468 451L467 450M732 450L733 451L732 450z"/>
<path style="fill:#aa6342; stroke:none;" d="M733.667 450.333L734.333 450.667L733.667 450.333M785 450L785 451L788 451L785 450M825 450L826 451L825 450M311 710C312.117 723.679 317.34 737.684 320.626 751C324.492 766.667 326.356 782.949 332.453 798C342.392 822.536 360.135 844.902 378.17 863.961C398.551 885.499 423.324 900.803 446 919.464C467.534 937.184 487.359 954.773 512 968.306C520.168 972.791 529.725 979.293 539 981.042C551.296 983.361 566.424 981 579 981L663 981C675.506 981 689.803 979.096 702 982L703 979C709.328 978.995 715.209 973.362 720 969.55C733.492 958.816 745.519 945.153 753.895 930C756.286 925.674 755.165 920.235 758.434 916.439C766.723 906.811 780.16 900.742 790 892.739C811.811 874.999 832.056 855.069 848.279 832C874.447 794.791 876.532 752.12 890 710C922.473 723.724 936.791 683.252 949.811 662C967.11 633.764 993.478 610.838 1004.91 579C1014.35 552.694 1009.82 521.176 1007.91 494C1007.06 481.861 1005.38 466.013 995.826 457.34C983.383 446.049 966.177 450.836 964 467C980.785 458.17 996.016 462.466 997 484C973.341 468.608 962.201 504.683 949 516L936 559C953.651 563.964 950.681 598.28 943.005 609.957C940.145 614.308 934.86 615.878 931.931 620.185C929.662 623.52 927.255 643.274 919.426 637.928C915.19 635.036 924.005 626.339 925.762 624C938.728 606.733 934 587.663 934 568C928.013 572.318 933.073 586.294 932.996 593C932.742 615.078 914 627.497 914 649L916 649L916 640C930.687 646.937 929.547 625.956 937.043 619.213C947.169 610.106 962.828 607.125 969.547 594C977.785 577.907 965.749 556.356 957.319 543C954.689 538.834 949.879 534.002 948.518 529.286C946.851 523.508 954.303 515.361 956 510L958 510C967.618 532.32 987.817 552.864 985.91 579C983.311 614.612 943.658 630.744 929 659L958 632C950.456 644.114 942.11 655.561 935.001 668C929.733 677.218 925.227 688.167 917.816 695.907C913.875 700.022 897.245 708.644 893.353 699.697C892.175 696.99 894.201 692.674 894.873 690C896.895 681.961 899.283 674.021 901.371 666C909.582 634.463 923.263 602.198 928 570L916 571L916 572C919.353 578.12 911.912 593.366 910 600C902.714 625.284 895.901 650.692 888.71 676C881.769 700.429 875.742 725.286 869.884 750C866.019 766.308 863.745 782.635 856.691 798C835.328 844.533 794.422 876.276 755 906.651C734.716 922.28 715.494 938.934 692 949.691C638.774 974.063 561.226 974.063 508 949.691C481.871 937.727 460.769 918.45 438 901.373C402.712 874.908 368.655 845.375 347.309 806C337.657 788.197 334.719 769.424 330.116 750C323.766 723.207 316.383 696.684 309.626 670C303.935 647.525 297.18 625.301 290.86 603C288.054 593.103 282.679 581.299 283 571L272 570L283.29 611L308 701C301.979 701.885 296.098 704.208 290 702.146C272.202 696.126 262.056 664.8 252.681 650C235.894 623.501 210.451 601.965 201.039 571C192.921 544.292 199.997 514.208 200 487L205 485C196.933 517.745 199.759 563.13 213.792 594C220.702 609.198 231.826 621.672 242.834 634C250.744 642.859 258.848 652.65 269 659C265.445 649.824 255.827 642.828 249 636C235.805 622.804 218.951 605.572 213.927 587C206.016 557.752 230.858 534.969 240 510L242 510C244.143 515.147 250.756 523.328 249.755 529C248.847 534.148 243.163 539.602 240.425 544C232.252 557.128 222.277 576.042 228.133 592C233.77 607.357 252.218 609.986 262.786 620.329C270.977 628.345 266.07 643.618 282 641L283 649L284 649C287.983 632.263 272.786 624.446 268.44 610C263.818 594.637 269.93 580.773 266.929 566C264 551.582 254.066 537.773 253 523C249.21 523 245.703 511.41 243.667 508C236.032 495.216 216.819 469.597 201 485C202.371 474.382 207.507 459.326 221 461.217C226.865 462.039 231.955 466.202 237 469C235.766 465.14 235.241 459.717 232.86 456.418C230.047 452.52 223.415 451.772 219 451.711C199.73 451.449 193.276 470.008 191.286 486C187.718 514.677 183.354 553.551 194.309 581C205.807 609.807 228.692 630.335 244.947 656C255.674 672.937 265.901 705.113 287 711.211C295.133 713.561 303.021 711.824 311 710M372 451L373 452L372 451M406.667 451.333L407.333 451.667L406.667 451.333M471.667 451.333L472.333 451.667L471.667 451.333M727.667 451.333L728.333 451.667L727.667 451.333M792.667 451.333L793.333 451.667L792.667 451.333M827 451L828 452L827 451M371 452L372 453L371 452M400.667 452.333L401.333 452.667L400.667 452.333M476.667 452.333L477.333 452.667L476.667 452.333M722.667 452.333L723.333 452.667L722.667 452.333M798.667 452.333L799.333 452.667L798.667 452.333M828 452L829 453L828 452M369 453L370 454L369 453M395.667 453.333L396.333 453.667L395.667 453.333M480.667 453.333L481.333 453.667L480.667 453.333M718.667 453.333L719.333 453.667L718.667 453.333M803.667 453.333L804.333 453.667L803.667 453.333M830 453L831 454L830 453M367 454L368 455L367 454M390.667 454.333L391.333 454.667L390.667 454.333M485 454L486 455L485 454z"/>
<path style="fill:#50609e; stroke:none;" d="M486 454L487 455L486 454M713 454L714 455L713 454z"/>
<path style="fill:#aa6342; stroke:none;" d="M714 454L715 455L714 454M808.667 454.333L809.333 454.667L808.667 454.333M832 454L833 455L832 454z"/>
<path style="fill:#50609e; stroke:none;" d="M366 455L367 456L366 455z"/>
<path style="fill:#aa6342; stroke:none;" d="M386 455L387 456L386 455M489 455L490 456L489 455z"/>
<path style="fill:#50609e; stroke:none;" d="M490 455L491 456L490 455M534 455L535 456L534 455M665 455L666 456L665 455M709 455L710 456L709 455z"/>
<path style="fill:#aa6342; stroke:none;" d="M710 455L711 456L710 455M813 455L814 456L813 455z"/>
<path style="fill:#50609e; stroke:none;" d="M814 455L815 456L814 455M833 455L834 456L833 455z"/>
<path style="fill:#aa6342; stroke:none;" d="M364 456L365 457L364 456M382 456L383 457L382 456M375 467L375 468C388.103 466.072 400.779 461.384 414 459.427C440.183 455.552 466.534 459.315 490 471.782C501.49 477.886 509.577 487.658 520 495C491.042 444.903 420.838 453.992 375 467M493 456L494 457L493 456z"/>
<path style="fill:#50609e; stroke:none;" d="M494 456L495 457L494 456M705 456L706 457L705 456z"/>
<path style="fill:#aa6342; stroke:none;" d="M706 456L707 457L706 456M678 495L679 495C699.857 467.702 739.644 454.993 773 458.17C790.166 459.805 806.152 465.521 823 468C813.938 462.305 800.439 460.649 790 458.92C753.101 452.808 697.882 456.675 678 495M817 456L818 457L817 456z"/>
<path style="fill:#50609e; stroke:none;" d="M818 456L819 457L818 456z"/>
<path style="fill:#aa6342; stroke:none;" d="M835 456L836 457L835 456M363 457L364 458L363 457z"/>
<path style="fill:#50609e; stroke:none;" d="M377 457L378 458L377 457z"/>
<path style="fill:#aa6342; stroke:none;" d="M378 457L379 458L378 457M497 457L498 458L497 457z"/>
<path style="fill:#50609e; stroke:none;" d="M498 457L499 458L498 457z"/>
<path style="fill:#aa6342; stroke:none;" d="M535 457L536 458L535 457M664 457L665 458L664 457z"/>
<path style="fill:#50609e; stroke:none;" d="M701 457L702 458L701 457z"/>
<path style="fill:#aa6342; stroke:none;" d="M702 457L703 458L702 457M821 457L822 458L821 457z"/>
<path style="fill:#50609e; stroke:none;" d="M822 457L823 458L822 457z"/>
<path style="fill:#aa6342; stroke:none;" d="M836 457L837 458L836 457z"/>
<path style="fill:#50609e; stroke:none;" d="M362 458L363 459L362 458M373 458L374 459L373 458z"/>
<path style="fill:#aa6342; stroke:none;" d="M374 458L375 459L374 458M501 458L502 459L501 458z"/>
<path style="fill:#50609e; stroke:none;" d="M502 458L503 459L502 458M697 458L698 459L697 458z"/>
<path style="fill:#aa6342; stroke:none;" d="M698 458L699 459L698 458M825 458L826 459L825 458z"/>
<path style="fill:#50609e; stroke:none;" d="M826 458L827 459L826 458M837 458L838 459L837 458z"/>
<path style="fill:#aa6342; stroke:none;" d="M360 459L361 460L360 459M370 459L371 460L370 459M505.667 459.333L506.333 459.667L505.667 459.333M693.667 459.333L694.333 459.667L693.667 459.333M828.667 459.333L829.333 459.667L828.667 459.333M839 459L840 460L839 459M359 460L360 461L359 460M366.667 460.333L367.333 460.667L366.667 460.333M509.667 460.333L510.333 460.667L509.667 460.333M535 460L536 461L535 460M664 460L665 461L664 460M689.667 460.333L690.333 460.667L689.667 460.333M832 460L833 461L832 460M840 460L841 461L840 460z"/>
<path style="fill:#dba589; stroke:none;" d="M201 485C223.319 470.5 244.275 505.769 251 524C252.362 519.516 249.764 514.312 248.333 510C245.166 500.454 242.441 490.726 239.884 481C238.699 476.491 238.228 470.929 234.721 467.529C218.289 451.597 202.445 466.848 201 485z"/>
<path style="fill:#aa6342; stroke:none;" d="M358 461L359 462L358 461M363 461L364 462L363 461M514.667 461.333L515.333 461.667L514.667 461.333M684.667 461.333L685.333 461.667L684.667 461.333M836 461L837 462L836 461M841 461L842 462L841 461z"/>
<path style="fill:#dba589; stroke:none;" d="M950 516L951 516C960.711 499.378 974.861 473.727 997 484C996.659 467.974 980.058 451.143 965.419 466.39C961.746 470.215 960.986 477.065 959.579 482C956.368 493.262 952.372 504.536 950 516z"/>
<path style="fill:#aa6342; stroke:none;" d="M357 462L358 463L357 462M359.667 462.333L360.333 462.667L359.667 462.333M519 462L520 463L519 462M534 462L535 463L534 462M665 462L666 463L665 462M680 462L681 463L680 462M839 462L840 463L839 462z"/>
<path style="fill:#50609e; stroke:none;" d="M840 462L841 463L840 462z"/>
<path style="fill:#aa6342; stroke:none;" d="M842 462L843 463L842 462M356 463L357 464L356 463M523.667 463.333L524.333 463.667L523.667 463.333z"/>
<path style="fill:#50609e; stroke:none;" d="M525 463L526 464L525 463M529 463L530 464L529 463z"/>
<path style="fill:#aa6342; stroke:none;" d="M530.667 463.333L531.333 463.667L530.667 463.333M668.667 463.333L669.333 463.667L668.667 463.333z"/>
<path style="fill:#50609e; stroke:none;" d="M670 463L671 464L670 463M674 463L675 464L674 463z"/>
<path style="fill:#aa6342; stroke:none;" d="M675.667 463.333L676.333 463.667L675.667 463.333M843 463L844 464L843 463M426 464L426 465L432 465L426 464M766 464L766 465L772 465L766 464M413 465L413 466L417 466L413 465z"/>
<path style="fill:#433d3f; stroke:none;" d="M353 485C358.186 501.381 372.009 517.246 382.011 531C385.816 536.233 390.681 544.037 397 546.397C406.66 550.006 419.868 547.984 430 548C459.182 548.045 488.066 543.24 517 543L517 542C487.205 542 456.692 545.996 427 543.17C411.113 541.658 401.092 543.381 389.015 531C381.101 522.887 375.337 512.425 371.012 502C369.793 499.063 367.149 494.491 367.929 491.213C368.695 487.995 373.393 486.551 376 485.247C384.398 481.045 393.001 477.43 402 474.72C431.866 465.725 462.088 468.325 489 484.811C501.04 492.187 510.928 503.022 523 510C488.982 451.139 404.413 457.92 353 485z"/>
<path style="fill:#aa6342; stroke:none;" d="M445 465L445 466L449 466L445 465M749 465L749 466L752 466L749 465z"/>
<path style="fill:#433d3f; stroke:none;" d="M675 510C687.466 501.754 698.011 491.138 711 483.452C734.213 469.717 760.913 466.145 787 472.235C802.596 475.877 815.9 484.65 831 489C826.917 506.647 814.916 531.541 798 540C789.714 544.144 779.858 542.327 771 543.17C740.969 546.028 710.133 542 680 542C688.52 545.609 700.785 545.413 710 546.089C730.055 547.559 749.87 548.001 770 548C779.468 547.999 793.283 550.214 801.999 545.821C810.339 541.617 816.811 529.492 821.974 522C827.861 513.459 833.985 505.002 839.15 496C840.777 493.163 844.467 488.665 842.864 485.213C841.323 481.894 836.053 480.256 833 478.756C822.931 473.808 811.907 470.981 801 468.576C758.749 459.26 696.872 466.092 675 510z"/>
<path style="fill:#aa6342; stroke:none;" d="M781 465L781 466L784 466L781 465M407.667 466.333L408.333 466.667L407.667 466.333M455 466L456 467L455 466M742 466L743 467L742 466M789.667 466.333L790.333 466.667L789.667 466.333M401 467L402 468L401 467M460 467L461 468L460 467M737 467L738 468L737 467M796 467L797 468L796 467M372.667 468.333L373.333 468.667L372.667 468.333M396 468L397 469L396 468M463.667 468.333L464.333 468.667L463.667 468.333M733 468L734 469L733 468M800.667 468.333L801.333 468.667L800.667 468.333M824.667 468.333L825.333 468.667L824.667 468.333M963 468L964 469L963 468M392 469L393 470L392 469z"/>
<path style="fill:#50609e; stroke:none;" d="M427.667 469.333L428.333 469.667L427.667 469.333z"/>
<path style="fill:#aa6342; stroke:none;" d="M429 469L430 470L429 469z"/>
<path style="fill:#dba589; stroke:none;" d="M430 469L430 470L440 470L430 469z"/>
<path style="fill:#aa6342; stroke:none;" d="M440 469L441 470L440 469z"/>
<path style="fill:#50609e; stroke:none;" d="M441 469L441 470L444 470L441 469z"/>
<path style="fill:#aa6342; stroke:none;" d="M467 469L468 470L467 469M729.667 469.333L730.333 469.667L729.667 469.333z"/>
<path style="fill:#50609e; stroke:none;" d="M753 469L753 470L756 470L753 469z"/>
<path style="fill:#aa6342; stroke:none;" d="M756 469L757 470L756 469z"/>
<path style="fill:#dba589; stroke:none;" d="M757 469L757 470L768 470L757 469z"/>
<path style="fill:#aa6342; stroke:none;" d="M768 469L769 470L768 469z"/>
<path style="fill:#50609e; stroke:none;" d="M769.667 469.333L770.333 469.667L769.667 469.333z"/>
<path style="fill:#aa6342; stroke:none;" d="M805 469L806 470L805 469M388 470L389 471L388 470z"/>
<path style="fill:#50609e; stroke:none;" d="M419 470L420 471L419 470z"/>
<path style="fill:#dba589; stroke:none;" d="M420.667 470.333L421.333 470.667L420.667 470.333z"/>
<path style="fill:#e0e2e7; stroke:none;" d="M369 496C374.252 511.523 383.931 533.23 400 540.045C412.458 545.329 429.733 543 443 543L443 542C399.396 538.169 406.84 471.349 449 471C444.28 469.019 438.08 470 433 470C416.727 470 393.6 473.738 380.209 483.814C375.877 487.073 373.037 492.337 369 496z"/>
<path style="fill:#dba589; stroke:none;" d="M449.667 470.333L450.333 470.667L449.667 470.333z"/>
<path style="fill:#50609e; stroke:none;" d="M446 542L446 543L442 543L442 544L456 544L456 543L451 543L451 542C475.683 541.793 490.238 514.991 481.535 493C477.816 483.6 470.38 479.962 464 473C448.662 471.873 434.369 468.743 422.465 482.093C403.41 503.461 415.253 541.742 446 542z"/>
<path style="fill:#aa6342; stroke:none;" d="M470 470L471 471L470 470M726 470L727 471L726 470z"/>
<path style="fill:#50609e; stroke:none;" d="M745 470C745 472.854 743.314 471.67 741 471C741 473.854 739.314 472.67 737 472C737 475.526 722.867 484.015 720.167 489C708.142 511.2 722.488 542 749 542L749 543L741 543L741 544L755 544L754 542C780.643 541.777 795.818 509.983 781.907 488C772.462 473.076 760.188 473.616 745 470z"/>
<path style="fill:#aa6342; stroke:none;" d="M746 470L747 471L746 470z"/>
<path style="fill:#dba589; stroke:none;" d="M747 470L748 471L747 470z"/>
<path style="fill:#e0e2e7; stroke:none;" d="M748 470L748 471C764.352 471.002 778.209 478.178 784.801 494C793.105 513.934 779.031 540.064 757 542L757 543C769.263 543 784.247 544.778 796 540.751C811.226 535.534 825.7 511.344 828 496C822.724 492.808 821.298 486.108 815.896 482.796C795.785 470.466 770.69 470 748 470z"/>
<path style="fill:#dba589; stroke:none;" d="M775 470L775 471L778 471L775 470z"/>
<path style="fill:#50609e; stroke:none;" d="M778 470L779 471L778 470z"/>
<path style="fill:#aa6342; stroke:none;" d="M809 470L810 471L809 470z"/>
<path style="fill:#50609e; stroke:none;" d="M900 470L900 474L901 474L900 470z"/>
<path style="fill:#aa6342; stroke:none;" d="M237 471L238 472L237 471M384 471L385 472L384 471z"/>
<path style="fill:#50609e; stroke:none;" d="M413 471L414 472L413 471z"/>
<path style="fill:#aa6342; stroke:none;" d="M414 471L415 472L414 471z"/>
<path style="fill:#dba589; stroke:none;" d="M415 471L416 472L415 471M441.667 471.333L442.333 471.667L441.667 471.333z"/>
<path style="fill:#aa6342; stroke:none;" d="M454 471L455 472L454 471M473 471L474 472L473 471M723 471L724 472L723 471z"/>
<path style="fill:#dba589; stroke:none;" d="M742 471L743 472L742 471z"/>
<path style="fill:#e0e2e7; stroke:none;" d="M743 471L744 472L743 471z"/>
<path style="fill:#dba589; stroke:none;" d="M744.667 471.333L745.333 471.667L744.667 471.333M757.667 471.333L758.333 471.667L757.667 471.333M781.667 471.333L782.333 471.667L781.667 471.333z"/>
<path style="fill:#50609e; stroke:none;" d="M783 471L784 472L783 471z"/>
<path style="fill:#aa6342; stroke:none;" d="M813 471L814 472L813 471M962 471L963 472L962 471M380 472L381 473L380 472z"/>
<path style="fill:#50609e; stroke:none;" d="M409 472L410 473L409 472z"/>
<path style="fill:#dba589; stroke:none;" d="M410 472L411 473L410 472M437.667 472.333L438.333 472.667L437.667 472.333M458 472L459 473L458 472z"/>
<path style="fill:#aa6342; stroke:none;" d="M459 472L460 473L459 472M476 472L477 473L476 472M721 472L722 473L721 472z"/>
<path style="fill:#dba589; stroke:none;" d="M738 472L739 473L738 472z"/>
<path style="fill:#e0e2e7; stroke:none;" d="M739 472L740 473L739 472z"/>
<path style="fill:#dba589; stroke:none;" d="M740.667 472.333L741.333 472.667L740.667 472.333M761.667 472.333L762.333 472.667L761.667 472.333M786.667 472.333L787.333 472.667L786.667 472.333z"/>
<path style="fill:#50609e; stroke:none;" d="M788 472L789 473L788 472z"/>
<path style="fill:#aa6342; stroke:none;" d="M816.667 472.333L817.333 472.667L816.667 472.333M377 473L378 474L377 473M406 473L407 474L406 473z"/>
<path style="fill:#dba589; stroke:none;" d="M434 473L435 474L434 473M462 473L463 474L462 473z"/>
<path style="fill:#aa6342; stroke:none;" d="M478 473L479 474L478 473M718 473L719 474L718 473z"/>
<path style="fill:#50609e; stroke:none;" d="M733 473L734 474L733 473z"/>
<path style="fill:#aa6342; stroke:none;" d="M734 473L735 474L734 473z"/>
<path style="fill:#e0e2e7; stroke:none;" d="M746 543L746 542C708.644 538.718 708.647 489.172 737 474C730.187 472.569 719.865 478.919 714 482.143C695.52 492.299 669.87 505.334 677.746 530C678.818 533.357 680.1 537.962 682.8 540.397C686.613 543.836 696.198 542 701 542C715.975 542 730.965 543 746 543z"/>
<path style="fill:#dba589; stroke:none;" d="M737 473L738 474L737 473M765 473L766 474L765 473M790 473L791 474L790 473z"/>
<path style="fill:#aa6342; stroke:none;" d="M791 473L792 474L791 473M819 473L820 474L819 473M374 474L375 475L374 474z"/>
<path style="fill:#50609e; stroke:none;" d="M402 474L403 475L402 474z"/>
<path style="fill:#dba589; stroke:none;" d="M403 474L404 475L403 474M432 474L433 475L432 474M464 474L464 475L468 477L464 474z"/>
<path style="fill:#aa6342; stroke:none;" d="M466 474L467 475L466 474z"/>
<path style="fill:#50609e; stroke:none;" d="M467 474L468 475L467 474z"/>
<path style="fill:#aa6342; stroke:none;" d="M481 474L482 475L481 474M716 474L717 475L716 474z"/>
<path style="fill:#50609e; stroke:none;" d="M730 474L731 475L730 474z"/>
<path style="fill:#dba589; stroke:none;" d="M731 474L732 475L731 474M735 474L736 475L735 474M767 474L768 475L767 474M794 474L795 475L794 474z"/>
<path style="fill:#50609e; stroke:none;" d="M795 474L796 475L795 474z"/>
<path style="fill:#aa6342; stroke:none;" d="M822 474L823 475L822 474M900 474L900 485L901 485L900 474M961.333 474.667L961.667 475.333L961.333 474.667M238 475L239 476L238 475M372 475L373 476L372 475M399 475L400 476L399 475z"/>
<path style="fill:#dba589; stroke:none;" d="M400 475L401 476L400 475M430 475L431 476L430 475z"/>
<path style="fill:#e0e2e7; stroke:none;" d="M467 475L467 476C490.541 493.937 489.936 538.843 454 542L454 543C467.696 543 481.368 542.005 495 542C500.217 541.998 509.163 543.7 513.787 540.972C521.776 536.259 523.875 516.805 519.683 509.286C511.169 494.013 483.361 479.475 467 475z"/>
<path style="fill:#aa6342; stroke:none;" d="M469 475L470 476L469 475M483 475L484 476L483 475M714 475L715 476L714 475z"/>
<path style="fill:#50609e; stroke:none;" d="M727 475L728 476L727 475z"/>
<path style="fill:#dba589; stroke:none;" d="M728 475L729 476L728 475M769 475L770 476L769 475M797 475L798 476L797 475z"/>
<path style="fill:#50609e; stroke:none;" d="M798 475L799 476L798 475z"/>
<path style="fill:#aa6342; stroke:none;" d="M825 475L826 476L825 475M369 476L370 477L369 476z"/>
<path style="fill:#50609e; stroke:none;" d="M396 476L397 477L396 476z"/>
<path style="fill:#dba589; stroke:none;" d="M397 476L398 477L397 476M429 476L430 477L429 476M471 476L472 477L471 476z"/>
<path style="fill:#50609e; stroke:none;" d="M472 476L473 477L472 476z"/>
<path style="fill:#aa6342; stroke:none;" d="M485 476L486 477L485 476M712 476L713 477L712 476z"/>
<path style="fill:#50609e; stroke:none;" d="M725 476L726 477L725 476z"/>
<path style="fill:#dba589; stroke:none;" d="M726 476L727 477L726 476M732 476L733 477L732 476M770 476L771 477L770 476M800 476L801 477L800 476z"/>
<path style="fill:#50609e; stroke:none;" d="M801 476L802 477L801 476z"/>
<path style="fill:#aa6342; stroke:none;" d="M297 477L297 484L298 484L297 477M367 477L368 478L367 477z"/>
<path style="fill:#50609e; stroke:none;" d="M393 477L394 478L393 477z"/>
<path style="fill:#dba589; stroke:none;" d="M394 477L395 478L394 477M427 477L428 478L427 477M469 477L470 478L469 477z"/>
<path style="fill:#aa6342; stroke:none;" d="M474 477L475 478L474 477M487 477L488 478L487 477M710 477L711 478L710 477z"/>
<path style="fill:#50609e; stroke:none;" d="M722 477L723 478L722 477z"/>
<path style="fill:#dba589; stroke:none;" d="M723 477L724 478L723 477M730 477L731 478L730 477M772 477L773 478L772 477M803 477L804 478L803 477z"/>
<path style="fill:#50609e; stroke:none;" d="M804 477L805 478L804 477z"/>
<path style="fill:#aa6342; stroke:none;" d="M830 477L831 478L830 477M365 478L366 479L365 478z"/>
<path style="fill:#50609e; stroke:none;" d="M390 478L391 479L390 478z"/>
<path style="fill:#dba589; stroke:none;" d="M391 478L392 479L391 478M426 478L427 479L426 478M458 478L454 494L455 494L459 481L461 481L461 490L466 490L460 498C463.485 495.836 468.629 490.662 470 497L475 499C485.17 489.031 466.994 478.192 458 478M470 478L471 479L470 478M476 478L477 479L476 478z"/>
<path style="fill:#50609e; stroke:none;" d="M477 478L478 479L477 478z"/>
<path style="fill:#aa6342; stroke:none;" d="M489 478L490 479L489 478M708 478L709 479L708 478z"/>
<path style="fill:#50609e; stroke:none;" d="M720 478L721 479L720 478z"/>
<path style="fill:#dba589; stroke:none;" d="M721 478L722 479L721 478M729 478L730 479L729 478M760 478L757 494L758 494L762 483L763 483L764 490L769 490L763 498L770 492L771 492L774 494L773 497L778 499L779 499L781 490L780 490L779 492C777.635 489.271 773.985 484.996 778 486C773.345 479.972 767.403 478.062 760 478M773 478L774 479L773 478M806 478L807 479L806 478z"/>
<path style="fill:#50609e; stroke:none;" d="M807 478L808 479L807 478z"/>
<path style="fill:#aa6342; stroke:none;" d="M832 478L833 479L832 478M960 478L961 479L960 478M239 479L240 480L239 479M388 479L389 480L388 479z"/>
<path style="fill:#dba589; stroke:none;" d="M478 479L479 480L478 479z"/>
<path style="fill:#50609e; stroke:none;" d="M479 479L480 480L479 479z"/>
<path style="fill:#aa6342; stroke:none;" d="M706 479L707 480L706 479z"/>
<path style="fill:#50609e; stroke:none;" d="M718 479L719 480L718 479M809 479L810 480L809 479z"/>
<path style="fill:#aa6342; stroke:none;" d="M834 479L835 480L834 479M361 480L362 481L361 480z"/>
<path style="fill:#dba589; stroke:none;" d="M386 480L387 481L386 480M480 480L481 481L480 480z"/>
<path style="fill:#50609e; stroke:none;" d="M481 480L482 481L481 480z"/>
<path style="fill:#aa6342; stroke:none;" d="M492 480L493 481L492 480z"/>
<path style="fill:#50609e; stroke:none;" d="M716 480L717 481L716 480z"/>
<path style="fill:#aa6342; stroke:none;" d="M811 480L812 481L811 480M836 480L837 481L836 480M359 481L360 482L359 481z"/>
<path style="fill:#50609e; stroke:none;" d="M383 481L384 482L383 481z"/>
<path style="fill:#dba589; stroke:none;" d="M384 481L385 482L384 481z"/>
<path style="fill:#50609e; stroke:none;" d="M459 481C456.808 487.725 453.394 492.951 460 498L466 490L461 490L461 481L459 481z"/>
<path style="fill:#dba589; stroke:none;" d="M482 481L483 482L482 481z"/>
<path style="fill:#50609e; stroke:none;" d="M483 481L484 482L483 481z"/>
<path style="fill:#aa6342; stroke:none;" d="M494 481L495 482L494 481M703 481L704 482L703 481z"/>
<path style="fill:#50609e; stroke:none;" d="M714 481L715 482L714 481z"/>
<path style="fill:#dba589; stroke:none;" d="M715 481L716 482L715 481M813 481L814 482L813 481z"/>
<path style="fill:#aa6342; stroke:none;" d="M838 481L839 482L838 481M959.333 481.667L959.667 482.333L959.333 481.667M240.333 482.667L240.667 483.333L240.333 482.667M357 482L358 483L357 482z"/>
<path style="fill:#50609e; stroke:none;" d="M381 482L382 483L381 482z"/>
<path style="fill:#dba589; stroke:none;" d="M382 482L383 483L382 482M484 482L485 483L484 482z"/>
<path style="fill:#50609e; stroke:none;" d="M485 482L486 483L485 482z"/>
<path style="fill:#aa6342; stroke:none;" d="M495 482L496 483L495 482z"/>
<path style="fill:#50609e; stroke:none;" d="M712 482L713 483L712 482z"/>
<path style="fill:#dba589; stroke:none;" d="M713 482L714 483L713 482M815 482L816 483L815 482z"/>
<path style="fill:#50609e; stroke:none;" d="M816 482L817 483L816 482z"/>
<path style="fill:#aa6342; stroke:none;" d="M840 482L841 483L840 482M355 483L356 484L355 483z"/>
<path style="fill:#50609e; stroke:none;" d="M379 483L380 484L379 483z"/>
<path style="fill:#dba589; stroke:none;" d="M421 483L422 484L421 483M486 483L487 484L486 483z"/>
<path style="fill:#aa6342; stroke:none;" d="M497 483L498 484L497 483M700 483L701 484L700 483z"/>
<path style="fill:#50609e; stroke:none;" d="M710 483L711 484L710 483z"/>
<path style="fill:#dba589; stroke:none;" d="M711 483L712 484L711 483z"/>
<path style="fill:#50609e; stroke:none;" d="M762 483C758.892 488.837 757.502 492.624 762 498L769 490L764 490L762 483z"/>
<path style="fill:#dba589; stroke:none;" d="M778 483L779 484L778 483M817 483L818 484L817 483z"/>
<path style="fill:#50609e; stroke:none;" d="M818 483L819 484L818 483M297 484L298 485L297 484z"/>
<path style="fill:#aa6342; stroke:none;" d="M354 484L355 485L354 484M377 484L378 485L377 484z"/>
<path style="fill:#dba589; stroke:none;" d="M378 484L379 485L378 484M420 484L421 485L420 484M476 484L477 485L476 484z"/>
<path style="fill:#50609e; stroke:none;" d="M488 484L489 485L488 484z"/>
<path style="fill:#aa6342; stroke:none;" d="M498 484L499 485L498 484z"/>
<path style="fill:#dba589; stroke:none;" d="M709 484L710 485L709 484M723 484L724 485L723 484z"/>
<path style="fill:#e0e2e7; stroke:none;" d="M775 484L776 485L775 484z"/>
<path style="fill:#dba589; stroke:none;" d="M779 484L780 485L779 484M819 484C820.769 489.258 823.895 494.581 829 497L831 490L819 484z"/>
<path style="fill:#50609e; stroke:none;" d="M820 484L821 485L820 484z"/>
<path style="fill:#aa6342; stroke:none;" d="M843 484L844 485L843 484z"/>
<path style="fill:#dba589; stroke:none;" d="M997 484L994 486C995.547 522.033 999.681 557.411 985.124 592C978.711 607.239 964.713 617.52 958 632C967.365 625.398 974.418 614.622 980.424 605C986.919 594.593 994.027 583.869 997.56 572C1002.56 555.201 1000.79 536.191 1000.04 519C999.571 508.31 1001.21 493.948 997 484M204 485L200 487C199.982 514.502 192.834 545.003 201.039 572C210.551 603.293 236.385 625.172 253.319 652C262.268 666.179 271.995 696.394 289 702.146C295.268 704.266 301.843 702.407 308 701C303.075 667.526 290.05 633.507 280.709 601C277.9 591.224 276.553 573.111 267 568C266.998 583.737 263.413 597.544 269.093 613C274.046 626.477 286.94 633.109 284 649L283 649L282 641C265.816 642.304 271.547 627.564 262.786 619.529C251.685 609.346 231.531 605.786 227.532 589C223.889 573.706 232.649 557.49 240.425 545C243.31 540.366 249.492 534.478 250.274 529C251.083 523.336 244.762 514.732 242 510L240 510C227.722 533.068 205.483 560.934 214.221 589C223.528 618.893 254.236 633.458 269 659C232.5 627.113 206.866 592.15 202.17 543C201.102 531.82 201.106 519.18 202.17 508C202.82 501.164 205.575 491.581 204 485z"/>
<path style="fill:#aa6342; stroke:none;" d="M352 485L353 486L352 485M375 485L376 486L375 485z"/>
<path style="fill:#dba589; stroke:none;" d="M367 490L369 496L378 485L367 490M477 485L478 486L477 485M489 485L490 486L489 485z"/>
<path style="fill:#50609e; stroke:none;" d="M490 485L491 486L490 485z"/>
<path style="fill:#aa6342; stroke:none;" d="M697 485L698 486L697 485z"/>
<path style="fill:#50609e; stroke:none;" d="M707 485L708 486L707 485z"/>
<path style="fill:#dba589; stroke:none;" d="M722 485L723 486L722 485z"/>
<path style="fill:#e0e2e7; stroke:none;" d="M776 485L780 492L776 485z"/>
<path style="fill:#50609e; stroke:none;" d="M822 485L823 486L822 485z"/>
<path style="fill:#aa6342; stroke:none;" d="M844.333 485.667L844.667 486.333L844.333 485.667z"/>
<path style="fill:#50609e; stroke:none;" d="M900 485L900 490L901 490L900 485z"/>
<path style="fill:#aa6342; stroke:none;" d="M958 485L959 486L958 485M241 486L242 487L241 486M373 486L374 487L373 486z"/>
<path style="fill:#dba589; stroke:none;" d="M478 486L479 487L478 486M491 486L492 487L491 486z"/>
<path style="fill:#aa6342; stroke:none;" d="M501 486L502 487L501 486M696 486L697 487L696 486z"/>
<path style="fill:#dba589; stroke:none;" d="M706 486L707 487L706 486z"/>
<path style="fill:#50609e; stroke:none;" d="M824 486L825 487L824 486z"/>
<path style="fill:#aa6342; stroke:none;" d="M353 487L354 488L353 487M371 487L372 488L371 487z"/>
<path style="fill:#dba589; stroke:none;" d="M418 487L419 488L418 487z"/>
<path style="fill:#50609e; stroke:none;" d="M493 487L494 488L493 487z"/>
<path style="fill:#aa6342; stroke:none;" d="M502 487L503 488L502 487M704 487L705 488L704 487z"/>
<path style="fill:#dba589; stroke:none;" d="M781 487L782 488L781 487z"/>
<path style="fill:#50609e; stroke:none;" d="M826 487L827 488L826 487z"/>
<path style="fill:#dba589; stroke:none;" d="M220 488C211.822 507.643 204.083 526.16 205.039 548C205.399 556.214 207.817 563.954 209 572C215.56 557.387 217.525 542.372 226.204 528C229.451 522.623 238.974 513.326 238.974 507C238.973 499.227 226.482 490.15 220 488z"/>
<path style="fill:#50609e; stroke:none;" d="M369 488L370 489L369 488z"/>
<path style="fill:#dba589; stroke:none;" d="M446 488L446 493L447 493L446 488M479 488L480 489L479 488M494 488L495 489L494 488z"/>
<path style="fill:#aa6342; stroke:none;" d="M693 488L694 489L693 488z"/>
<path style="fill:#50609e; stroke:none;" d="M702 488L703 489L702 488z"/>
<path style="fill:#dba589; stroke:none;" d="M703 488L704 489L703 488M720 488L721 489L720 488M749 488L749 493L750 493L749 488M779 488L780 489L779 488z"/>
<path style="fill:#50609e; stroke:none;" d="M828 488L829 489L828 488z"/>
<path style="fill:#aa6342; stroke:none;" d="M843 488L844 489L843 488M957.333 488.667L957.667 489.333L957.333 488.667z"/>
<path style="fill:#dba589; stroke:none;" d="M988 572L989 572C995.092 542.485 993.585 514.701 978 488C971.833 490.096 958.692 500.426 959.927 508C960.98 514.464 968.159 521.513 971.575 527C979.834 540.267 987.956 556.067 988 572z"/>
<path style="fill:#50609e; stroke:none;" d="M367 489L368 490L367 489M496 489L497 490L496 489z"/>
<path style="fill:#aa6342; stroke:none;" d="M692 489L693 490L692 489z"/>
<path style="fill:#dba589; stroke:none;" d="M701 489L702 490L701 489z"/>
<path style="fill:#50609e; stroke:none;" d="M830 489L831 490L830 489z"/>
<path style="fill:#aa6342; stroke:none;" d="M242 490L243 491L242 490M355 490L356 491L355 490z"/>
<path style="fill:#dba589; stroke:none;" d="M480 490L481 491L480 490M497 490L498 491L497 490z"/>
<path style="fill:#aa6342; stroke:none;" d="M691 490L692 491L691 490z"/>
<path style="fill:#dba589; stroke:none;" d="M700 490L701 491L700 490M719 490L720 491L719 490M437 491L439 496L440 496L437 491z"/>
<path style="fill:#50609e; stroke:none;" d="M499 491L500 492L499 491z"/>
<path style="fill:#aa6342; stroke:none;" d="M690 491L691 492L690 491M698 491L699 492L698 491z"/>
<path style="fill:#dba589; stroke:none;" d="M740 491L742 496L743 496L740 491z"/>
<path style="fill:#50609e; stroke:none;" d="M830 491L831 492L830 491z"/>
<path style="fill:#aa6342; stroke:none;" d="M841 491L842 492L841 491M356 492L357 493L356 492M367 492L368 493L367 492z"/>
<path style="fill:#dba589; stroke:none;" d="M415 492L416 493L415 492M481 492L482 493L481 492z"/>
<path style="fill:#aa6342; stroke:none;" d="M500 492L501 493L500 492M689 492L690 493L689 492z"/>
<path style="fill:#dba589; stroke:none;" d="M697 492L698 493L697 492M718 492L719 493L718 492M784 492L785 493L784 492z"/>
<path style="fill:#aa6342; stroke:none;" d="M956 492L957 493L956 492z"/>
<path style="fill:#50609e; stroke:none;" d="M243 493L244 494L243 493z"/>
<path style="fill:#433d3f; stroke:none;" d="M444 493.573C426.22 498.674 435.532 525.826 453 520.347C470.637 514.815 461.474 488.559 444 493.573z"/>
<path style="fill:#dba589; stroke:none;" d="M501 493L502 494L501 493z"/>
<path style="fill:#50609e; stroke:none;" d="M695 493L696 494L695 493z"/>
<path style="fill:#433d3f; stroke:none;" d="M747 493.573C729.22 498.674 738.532 525.827 756 520.347C773.637 514.815 764.474 488.559 747 493.573z"/>
<path style="fill:#aa6342; stroke:none;" d="M840 493L841 494L840 493M243 494L244 495L243 494z"/>
<path style="fill:#50609e; stroke:none;" d="M503 494L504 495L503 494z"/>
<path style="fill:#aa6342; stroke:none;" d="M687 494L688 495L687 494z"/>
<path style="fill:#dba589; stroke:none;" d="M694 494L695 495L694 494z"/>
<path style="fill:#aa6342; stroke:none;" d="M829 494L830 495L829 494M298 495L298 501L299 501L298 495M358 495L359 496L358 495M368 495L369 496L368 495z"/>
<path style="fill:#dba589; stroke:none;" d="M414 495L415 496L414 495z"/>
<path style="fill:#50609e; stroke:none;" d="M450 495L450 496L460 503C457.848 498.223 455.186 495.942 450 495z"/>
<path style="fill:#dba589; stroke:none;" d="M482 495L483 496L482 495M504 495L505 496L504 495z"/>
<path style="fill:#aa6342; stroke:none;" d="M686 495L687 496L686 495z"/>
<path style="fill:#dba589; stroke:none;" d="M693 495L694 496L693 495M717 495L718 496L717 495z"/>
<path style="fill:#50609e; stroke:none;" d="M753 495L763 504C761.685 498.485 758.648 495.631 753 495z"/>
<path style="fill:#dba589; stroke:none;" d="M785 495L786 496L785 495z"/>
<path style="fill:#aa6342; stroke:none;" d="M839 495L840 496L839 495M955.333 495.667L955.667 496.333L955.333 495.667z"/>
<path style="fill:#dba589; stroke:none;" d="M505 496L506 497L505 496z"/>
<path style="fill:#aa6342; stroke:none;" d="M685 496L686 497L685 496M691 496L692 497L691 496M244 497L245 498L244 497M359 497L360 498L359 497z"/>
<path style="fill:#dba589; stroke:none;" d="M369 497L370 498L369 497z"/>
<path style="fill:#50609e; stroke:none;" d="M507 497L508 498L507 497z"/>
<path style="fill:#aa6342; stroke:none;" d="M684 497L685 498L684 497z"/>
<path style="fill:#dba589; stroke:none;" d="M690 497L691 498L690 497z"/>
<path style="fill:#aa6342; stroke:none;" d="M828 497L829 498L828 497z"/>
<path style="fill:#50609e; stroke:none;" d="M369 498L370 499L369 498z"/>
<path style="fill:#dba589; stroke:none;" d="M430.667 498.333L431.333 498.667L430.667 498.333z"/>
<path style="fill:#aa6342; stroke:none;" d="M508 498L509 499L508 498M683 498L684 499L683 498z"/>
<path style="fill:#dba589; stroke:none;" d="M689 498L690 499L689 498M733.667 498.333L734.333 498.667L733.667 498.333z"/>
<path style="fill:#aa6342; stroke:none;" d="M837 498L838 499L837 498z"/>
<path style="fill:#dba589; stroke:none;" d="M413 499L414 500L413 499M432 499L435 501L432 499M483 499L484 500L483 499M509 499L510 500L509 499z"/>
<path style="fill:#aa6342; stroke:none;" d="M682 499L683 500L682 499z"/>
<path style="fill:#dba589; stroke:none;" d="M716 499L717 500L716 499M735 499L738 501L735 499M786 499L787 500L786 499M827 499L828 500L827 499z"/>
<path style="fill:#aa6342; stroke:none;" d="M954 499L955 500L954 499M245 500L246 501L245 500M361 500L362 501L361 500M370 500L371 501L370 500z"/>
<path style="fill:#dba589; stroke:none;" d="M510 500L511 501L510 500z"/>
<path style="fill:#aa6342; stroke:none;" d="M515 500L516 501L515 500z"/>
<path style="fill:#50609e; stroke:none;" d="M686 500L687 501L686 500M827 500L828 501L827 500z"/>
<path style="fill:#aa6342; stroke:none;" d="M836 500L837 501L836 500z"/>
<path style="fill:#50609e; stroke:none;" d="M298 501L299 502L298 501M512 501L513 502L512 501z"/>
<path style="fill:#aa6342; stroke:none;" d="M516 501L517 502L516 501M685 501L686 502L685 501M362 502L363 503L362 502z"/>
<path style="fill:#dba589; stroke:none;" d="M371 502L372 503L371 502z"/>
<path style="fill:#aa6342; stroke:none;" d="M513 502L514 503L513 502M517 502L518 503L517 502z"/>
<path style="fill:#dba589; stroke:none;" d="M684 502L685 503L684 502z"/>
<path style="fill:#aa6342; stroke:none;" d="M826 502L827 503L826 502M953.333 502.667L953.667 503.333L953.333 502.667M246.333 503.667L246.667 504.333L246.333 503.667z"/>
<path style="fill:#50609e; stroke:none;" d="M371 503L372 504L371 503z"/>
<path style="fill:#dba589; stroke:none;" d="M463 505L467 504L463 505z"/>
<path style="fill:#aa6342; stroke:none;" d="M514 503L515 504L514 503M518 503L519 504L518 503z"/>
<path style="fill:#dba589; stroke:none;" d="M766 505L770 504L766 505z"/>
<path style="fill:#aa6342; stroke:none;" d="M834 503L835 504L834 503z"/>
<path style="fill:#dba589; stroke:none;" d="M515 504L516 505L515 504z"/>
<path style="fill:#aa6342; stroke:none;" d="M678 504L679 505L678 504M825 504L826 505L825 504M364 505L365 506L364 505M372 505L373 506L372 505z"/>
<path style="fill:#dba589; stroke:none;" d="M516 505L517 506L516 505z"/>
<path style="fill:#aa6342; stroke:none;" d="M677 505L678 506L677 505z"/>
<path style="fill:#dba589; stroke:none;" d="M412.333 506.667L412.667 507.333L412.333 506.667M484.333 506.667L484.667 507.333L484.333 506.667M517 506L518 507L517 506z"/>
<path style="fill:#aa6342; stroke:none;" d="M679 506L680 507L679 506z"/>
<path style="fill:#dba589; stroke:none;" d="M715.333 506.667L715.667 507.333L715.333 506.667M787.333 506.667L787.667 507.333L787.333 506.667M824 506L825 507L824 506z"/>
<path style="fill:#aa6342; stroke:none;" d="M832 506L833 507L832 506M952 506L953 507L952 506M247 507L248 508L247 507z"/>
<path style="fill:#dba589; stroke:none;" d="M373 507L374 508L373 507M429 507L429 508L434 508L429 507M518 507L519 508L518 507z"/>
<path style="fill:#aa6342; stroke:none;" d="M521 507L522 508L521 507M678 507L679 508L678 507z"/>
<path style="fill:#dba589; stroke:none;" d="M732 507L732 508L737 508L732 507z"/>
<path style="fill:#aa6342; stroke:none;" d="M366 508L367 509L366 508M520 508L521 509L520 508M675 508L676 509L675 508M677 508L676 510L677 508z"/>
<path style="fill:#dba589; stroke:none;" d="M823 508L824 509L823 508z"/>
<path style="fill:#aa6342; stroke:none;" d="M299 509L299 513L300 513L299 509z"/>
<path style="fill:#dba589; stroke:none;" d="M374 509L375 510L374 509z"/>
<path style="fill:#aa6342; stroke:none;" d="M521 509L522 510L521 509M674 509L674 511L676 511L674 509z"/>
<path style="fill:#dba589; stroke:none;" d="M677 509L678 510L677 509z"/>
<path style="fill:#aa6342; stroke:none;" d="M830 509L831 510L830 509M899 509L899 516L900 516L899 509M951 509L952 510L951 509M248 510L249 511L248 510M522 510L525 512L522 510z"/>
<path style="fill:#dba589; stroke:none;" d="M822 510L823 511L822 510z"/>
<path style="fill:#50609e; stroke:none;" d="M829 510L830 511L829 510z"/>
<path style="fill:#dba589; stroke:none;" d="M956 510C953.528 515.295 947.138 522.837 948.107 529C948.904 534.074 954.597 539.688 957.319 544C965.406 556.813 976 575.29 970.387 591C964.945 606.229 946.616 609.317 936.105 619.213C928.451 626.419 931.316 645.222 916 640L916 649L914 649C914 632.692 924.789 626.357 929.644 612C934.568 597.44 931.634 584.761 931 570C926.686 571.261 926.433 576.07 925.296 580C922.695 588.991 920.148 597.997 917.588 607C911.156 629.62 904.474 652.222 898.63 675C897.083 681.027 890.806 693.809 892.616 699.787C894.367 705.571 908.311 702.901 912 701.056C924.631 694.738 931.162 675.684 937.843 664C943.874 653.452 953.637 643.164 958 632L929 659C948.741 633.09 989.563 608.337 985.829 571C984.857 561.277 980.963 551.725 976.742 543C971.204 531.554 964.631 520.832 958 510L956 510z"/>
<path style="fill:#aa6342; stroke:none;" d="M368 511L369 512L368 511z"/>
<path style="fill:#dba589; stroke:none;" d="M375 511L376 512L375 511M462 511L462 512L466 512L462 511z"/>
<path style="fill:#aa6342; stroke:none;" d="M673 511L674 512L673 511z"/>
<path style="fill:#dba589; stroke:none;" d="M765 511L765 512L769 512L765 511M466 512L467 513L466 512M769 512L770 513L769 512M821 512L822 513L821 512z"/>
<path style="fill:#aa6342; stroke:none;" d="M828 512L829 513L828 512z"/>
<path style="fill:#50609e; stroke:none;" d="M950 512L951 513L950 512z"/>
<path style="fill:#aa6342; stroke:none;" d="M249 513L250 514L249 513z"/>
<path style="fill:#50609e; stroke:none;" d="M299 513L300 514L299 513z"/>
<path style="fill:#aa6342; stroke:none;" d="M376 513L377 514L376 513M827 513L828 514L827 513M950 513L951 514L950 513M370 514L371 515L370 514z"/>
<path style="fill:#dba589; stroke:none;" d="M413 514L414 515L413 514M431 516L431 517L436 515L431 516M483 514L484 515L483 514M716 514L717 515L716 514M734 516L734 517L739 515L734 516M786 514L787 515L786 514M820 514L821 515L820 514z"/>
<path style="fill:#aa6342; stroke:none;" d="M377 515L378 516L377 515M826 515L827 516L826 515M250 516L251 517L250 516M819 516L820 517L819 516M825 516L826 517L825 516z"/>
<path style="fill:#50609e; stroke:none;" d="M899 516L900 517L899 516z"/>
<path style="fill:#aa6342; stroke:none;" d="M372 517L373 518L372 517z"/>
<path style="fill:#dba589; stroke:none;" d="M459 517L460 518L459 517M762 517L763 518L762 517M949 517L950 518L949 517M379 518L380 519L379 518M414 518L415 519L414 518M460 518L462 520L462 518L460 518M482 518L483 519L482 518M717 518L718 519L717 518M763 518L765 520L765 518L763 518M785 518L786 519L785 518z"/>
<path style="fill:#50609e; stroke:none;" d="M818 518L819 519L818 518z"/>
<path style="fill:#dba589; stroke:none;" d="M440 519L438 523L440 519M743 519L741 523L743 519M817 519L818 520L817 519z"/>
<path style="fill:#aa6342; stroke:none;" d="M823 519L824 520L823 519M251 520L252 521L251 520M374 520L375 521L374 520M380 520L381 521L380 520z"/>
<path style="fill:#dba589; stroke:none;" d="M462 520L463 521L462 520z"/>
<path style="fill:#aa6342; stroke:none;" d="M300 521L300 525L301 525L300 521z"/>
<path style="fill:#dba589; stroke:none;" d="M415 521L416 522L415 521M446 521L446 527L447 527L446 521M453 521L454 525L455 525L453 521M481 521L482 522L481 521M718 521L719 522L718 521M749 521L749 527L750 527L749 521M756 521L757 525L758 525L756 521M784 521L785 522L784 521z"/>
<path style="fill:#50609e; stroke:none;" d="M816 521L817 522L816 521z"/>
<path style="fill:#dba589; stroke:none;" d="M815 522L816 523L815 522z"/>
<path style="fill:#aa6342; stroke:none;" d="M821 522L822 523L821 522M376 523L377 524L376 523z"/>
<path style="fill:#dba589; stroke:none;" d="M382 523L383 524L382 523M437 523L438 524L437 523M740 523L741 524L740 523M252.333 524.667L252.667 525.333L252.333 524.667z"/>
<path style="fill:#aa6342; stroke:none;" d="M377 524L378 525L377 524z"/>
<path style="fill:#dba589; stroke:none;" d="M383 524L384 525L383 524z"/>
<path style="fill:#50609e; stroke:none;" d="M814 524L815 525L814 524M300 525L301 526L300 525z"/>
<path style="fill:#dba589; stroke:none;" d="M455 525L456 526L455 525z"/>
<path style="fill:#aa6342; stroke:none;" d="M813 525L814 526L813 525M819 525L820 526L819 525z"/>
<path style="fill:#50609e; stroke:none;" d="M384 526L385 527L384 526z"/>
<path style="fill:#dba589; stroke:none;" d="M418 526L419 527L418 526M478 526L479 527L478 526M721 526L722 527L721 526M781 526L782 527L781 526M812 526L813 527L812 526z"/>
<path style="fill:#aa6342; stroke:none;" d="M818 526L819 527L818 526z"/>
<path style="fill:#dba589; stroke:none;" d="M253 527L254 528L253 527z"/>
<path style="fill:#aa6342; stroke:none;" d="M379 527L380 528L379 527M385 527L386 528L385 527z"/>
<path style="fill:#dba589; stroke:none;" d="M427 527C427.374 531.839 429.22 533.461 434 534L434 529L432 531L431 531L427 527M730 527C729.527 531.986 732.303 533.643 737 534L737 529L730 527z"/>
<path style="fill:#aa6342; stroke:none;" d="M898 527L898 533L899 533L898 527z"/>
<path style="fill:#50609e; stroke:none;" d="M380 528L381 529L380 528z"/>
<path style="fill:#dba589; stroke:none;" d="M386 528L387 529L386 528z"/>
<path style="fill:#50609e; stroke:none;" d="M811 528L812 529L811 528z"/>
<path style="fill:#dba589; stroke:none;" d="M420 529L421 530L420 529M476 529L477 530L476 529M723 529L724 530L723 529M779 529L780 530L779 529z"/>
<path style="fill:#aa6342; stroke:none;" d="M810 529L811 530L810 529M816 529L817 530L816 529z"/>
<path style="fill:#dba589; stroke:none;" d="M475 530L476 531L475 530M724 530L725 531L724 530M809 530L810 531L809 530z"/>
<path style="fill:#aa6342; stroke:none;" d="M382 531L383 532L382 531z"/>
<path style="fill:#dba589; stroke:none;" d="M808 531L809 532L808 531M807 532L808 533L807 532z"/>
<path style="fill:#aa6342; stroke:none;" d="M301 533L301 537L302 537L301 533z"/>
<path style="fill:#dba589; stroke:none;" d="M424 533L425 534L424 533M472 533L473 534L472 533M727 533L728 534L727 533M775 533L776 534L775 533M806 533L807 534L806 533z"/>
<path style="fill:#aa6342; stroke:none;" d="M813 533L814 534L813 533z"/>
<path style="fill:#50609e; stroke:none;" d="M898 533L899 534L898 533z"/>
<path style="fill:#dba589; stroke:none;" d="M425 534L426 535L425 534M471 534L472 535L471 534M774 534L775 535L774 534z"/>
<path style="fill:#aa6342; stroke:none;" d="M812 534L813 535L812 534M385 535L386 536L385 535M386 536L387 537L386 536z"/>
<path style="fill:#dba589; stroke:none;" d="M731 536L732 537L731 536M803 536L804 537L803 536z"/>
<path style="fill:#50609e; stroke:none;" d="M301 537L302 538L301 537z"/>
<path style="fill:#dba589; stroke:none;" d="M395 537L396 538L395 537M429 537L430 538L429 537M467 537L468 538L467 537M770 537L771 538L770 537z"/>
<path style="fill:#50609e; stroke:none;" d="M802 537L803 538L802 537z"/>
<path style="fill:#aa6342; stroke:none;" d="M810 537L811 538L810 537z"/>
<path style="fill:#50609e; stroke:none;" d="M396 538L397 539L396 538z"/>
<path style="fill:#dba589; stroke:none;" d="M431 538L432 539L431 538M465 538L466 539L465 538M734 538L735 539L734 538M768 538L769 539L768 538M800 538L801 539L800 538z"/>
<path style="fill:#aa6342; stroke:none;" d="M809 538L810 539L809 538z"/>
<path style="fill:#dba589; stroke:none;" d="M398 539L399 540L398 539M433 539L434 540L433 539M463 539L464 540L463 539M736 539L737 540L736 539M766 539L767 540L766 539z"/>
<path style="fill:#50609e; stroke:none;" d="M799 539L800 540L799 539M399 540L400 541L399 540z"/>
<path style="fill:#dba589; stroke:none;" d="M400 540L401 541L400 540M435 540L436 541L435 540M461 540L462 541L461 540M738 540L739 541L738 540M764 540L765 541L764 540M797 540L798 541L797 540z"/>
<path style="fill:#aa6342; stroke:none;" d="M403 541L404 542L403 541z"/>
<path style="fill:#dba589; stroke:none;" d="M404 541L405 542L404 541M438 541L439 542L438 541M458 541L459 542L458 541M741 541L742 542L741 541M761 541L762 542L761 541M793 541L794 542L793 541z"/>
<path style="fill:#50609e; stroke:none;" d="M794 541L795 542L794 541M409 542L409 543L412 543L409 542z"/>
<path style="fill:#aa6342; stroke:none;" d="M412 542L413 543L412 542z"/>
<path style="fill:#dba589; stroke:none;" d="M413 542L413 543L416 543L413 542M443 542L443 543L446 543L443 542M451 542L451 543L454 543L451 542M485 542L485 543L496 543L485 542z"/>
<path style="fill:#aa6342; stroke:none;" d="M496 542L496 543L500 543L496 542z"/>
<path style="fill:#50609e; stroke:none;" d="M500 542L500 543L505 543L500 542z"/>
<path style="fill:#aa6342; stroke:none;" d="M517 542L517 543L520 543L517 542M678.667 542.333L679.333 542.667L678.667 542.333z"/>
<path style="fill:#50609e; stroke:none;" d="M693 542L693 543L698 543L693 542z"/>
<path style="fill:#aa6342; stroke:none;" d="M698 542L698 543L702 543L698 542z"/>
<path style="fill:#dba589; stroke:none;" d="M702 542L702 543L713 543L702 542M746 542L746 543L749 543L746 542M754 542L754 543L757 543L754 542M782 542L782 543L785 543L782 542z"/>
<path style="fill:#aa6342; stroke:none;" d="M785 542L786 543L785 542z"/>
<path style="fill:#50609e; stroke:none;" d="M786.667 542.333L787.333 542.667L786.667 542.333z"/>
<path style="fill:#aa6342; stroke:none;" d="M897 542L897 546L898 546L897 542z"/>
<path style="fill:#50609e; stroke:none;" d="M429 543L429 544L440 544L429 543z"/>
<path style="fill:#aa6342; stroke:none;" d="M440.667 543.333L441.333 543.667L440.667 543.333z"/>
<path style="fill:#50609e; stroke:none;" d="M509 543L510 544L509 543z"/>
<path style="fill:#aa6342; stroke:none;" d="M510.667 543.333L511.333 543.667L510.667 543.333M685.667 543.333L686.333 543.667L685.667 543.333z"/>
<path style="fill:#50609e; stroke:none;" d="M687 543L688 544L687 543z"/>
<path style="fill:#aa6342; stroke:none;" d="M755.667 543.333L756.333 543.667L755.667 543.333z"/>
<path style="fill:#50609e; stroke:none;" d="M757 543L757 544L769 544L757 543z"/>
<path style="fill:#aa6342; stroke:none;" d="M503 544L503 545L506 545L503 544M692 544L692 545L695 545L692 544M302 545L302 549L303 549L302 545M494 545L494 546L498 546L494 545M700 545L700 546L703 546L700 545M483 546L483 547L488 547L483 546M710 546L710 547L714 547L710 546M801 546L802 547L801 546z"/>
<path style="fill:#50609e; stroke:none;" d="M897 546L898 547L897 546z"/>
<path style="fill:#aa6342; stroke:none;" d="M398 547L398 548L404 548L398 547z"/>
<path style="fill:#50609e; stroke:none;" d="M404 547L405 548L404 547z"/>
<path style="fill:#aa6342; stroke:none;" d="M467 547L467 548L474 548L467 547M723 547L723 548L730 548L723 547M793 547L793 548L800 548L793 547M426 548L426 549L439 549L426 548M440 548L440 549L452 549L440 548M746 548L746 549L758 549L746 548M759 548L759 549L772 549L759 548z"/>
<path style="fill:#50609e; stroke:none;" d="M302 549L303 550L302 549M1009 552L1010 553L1009 552z"/>
<path style="fill:#aa6342; stroke:none;" d="M896 555L896 560L897 560L896 555M303 557L303 561L304 561L303 557z"/>
<path style="fill:#dba589; stroke:none;" d="M282 638L265.746 609L263 558C244.58 563.283 247.606 597.118 254.836 609.896C257.524 614.647 263.193 616.55 266.347 621.015C271.5 628.307 268.917 641.821 282 638M937 558C931.851 569.634 935.593 580.001 935.871 592C936.082 601.096 932.347 613.552 927.225 621C924.733 624.625 916.523 631.766 917.828 636.682C919.107 641.5 926.025 637.497 927.347 634.891C929.406 630.836 929.036 626.087 931.353 622.04C934.385 616.742 940.601 615.112 943.583 609.957C952.227 595.014 951.833 568.677 937 558z"/>
<path style="fill:#50609e; stroke:none;" d="M303 561L304 562L303 561z"/>
<path style="fill:#aa6342; stroke:none;" d="M935 561L936 562L935 561M934 564L935 565L934 564M304 569L304 573L305 573L304 569M895 569L895 573L896 573L895 569z"/>
<path style="fill:#50609e; stroke:none;" d="M929 569L930 570L929 569M191 571L192 572L191 571z"/>
<path style="fill:#aa6342; stroke:none;" d="M287.667 572.333L288.333 572.667L287.667 572.333z"/>
<path style="fill:#50609e; stroke:none;" d="M910 572L911 573L910 572z"/>
<path style="fill:#aa6342; stroke:none;" d="M911.667 572.333L912.333 572.667L911.667 572.333M293.667 573.333L294.333 573.667L293.667 573.333z"/>
<path style="fill:#50609e; stroke:none;" d="M304 573L305 574L304 573M895 573L896 574L895 573z"/>
<path style="fill:#aa6342; stroke:none;" d="M905.667 573.333L906.333 573.667L905.667 573.333M299.667 574.333L300.333 574.667L299.667 574.333M899.667 574.333L900.333 574.667L899.667 574.333z"/>
<path style="fill:#50609e; stroke:none;" d="M199 591L200 592L199 591M992 602L993 603L992 602M987 610L988 611L987 610M978 623L979 624L978 623M972 630L973 631L972 630M230 635L231 636L230 635M964 639L965 640L964 639M959 646L960 647L959 646M957 649L958 650L957 649M955 652L956 653L955 652M245 656L246 657L245 656z"/>
<path style="fill:#aa6342; stroke:none;" d="M646 703C644.28 691.946 629.761 690.561 621 693.524C617.904 694.571 611.237 697.405 611.921 701.682C612.355 704.396 616.225 703.653 618.001 703.235C628.993 700.647 635.104 702.768 646 703M554 705C558.293 704.625 561.893 703.039 566 701.916C571.468 700.421 578.725 704.775 583.663 702.382C588.044 700.259 582.052 696.173 579.995 695.272C570.877 691.281 555.817 693.325 554 705M688.999 793.576C659.66 797.26 629.866 804.336 600 805.406C582.713 806.025 566.784 799.187 549 801.286C536.723 802.734 526.021 801.212 514 799.326C510.81 798.825 505.126 798.737 504.662 803.093C504.088 808.484 511.225 809.442 515 810.079C527.304 812.159 538.665 811.638 551 811.039C568.076 810.208 583.171 815.154 600 815.545C616.358 815.924 633.664 810.724 650 809.17C663.147 807.919 680.021 809.893 691.891 802.722C697.147 799.547 695.357 792.778 688.999 793.576M577 834L577 837C589.455 837.983 602.491 839.041 615 837.83C619.627 837.382 625.381 837.155 628 833L577 834z"/>
<path style="fill:#50609e; stroke:none;" d="M420 900L421 901L420 900M779 900L780 901L779 900M424 903L425 904L424 903M775 903L776 904L775 903z"/>
<path style="fill:#dba589; stroke:none;" d="M537 979L538 980L537 979M539 979L540 980L539 979M541 979L542 980L541 979M543 979L544 980L543 979M545 979L546 980L545 979M547 979L548 980L547 979M549 979L550 980L549 979M551 979L552 980L551 979M553 979L554 980L553 979M555 979L556 980L555 979M557 979L558 980L557 979M559 979L560 980L559 979M561 979L562 980L561 979M563 979L564 980L563 979M565 979L566 980L565 979M567 979L568 980L567 979M569 979L570 980L569 979M571 979L572 980L571 979M573 979L574 980L573 979M575 979L576 980L575 979M577 979L578 980L577 979M579 979L580 980L579 979M581 979L582 980L581 979M583 979L584 980L583 979M585 979L586 980L585 979M587 979L588 980L587 979M589 979L590 980L589 979M591 979L592 980L591 979M593 979L594 980L593 979M595 979L596 980L595 979M597 979L598 980L597 979M599 979L600 980L599 979M601 979L602 980L601 979M603 979L604 980L603 979M605 979L606 980L605 979M607 979L608 980L607 979M609 979L610 980L609 979M611 979L612 980L611 979M613 979L614 980L613 979M615 979L616 980L615 979M617 979L618 980L617 979M619 979L620 980L619 979M621 979L622 980L621 979M623 979L624 980L623 979M625 979L626 980L625 979M627 979L628 980L627 979M629 979L630 980L629 979M631 979L632 980L631 979M633 979L634 980L633 979M635 979L636 980L635 979M637 979L638 980L637 979M639 979L640 980L639 979M641 979L642 980L641 979M643 979L644 980L643 979M645 979L646 980L645 979M647 979L648 980L647 979M649 979L650 980L649 979M651 979L652 980L651 979M653 979L654 980L653 979M655 979L656 980L655 979M657 979L658 980L657 979M659 979L660 980L659 979M661 979L662 980L661 979M663 979L664 980L663 979M665 979L666 980L665 979M667 979L668 980L667 979M669 979L670 980L669 979M671 979L672 980L671 979M673 979L674 980L673 979M675 979L676 980L675 979M677 979L678 980L677 979M679 979L680 980L679 979M681 979L682 980L681 979M683 979L684 980L683 979M685 979L686 980L685 979M687 979L688 980L687 979M689 979L690 980L689 979M691 979L692 980L691 979M693 979L694 980L693 979M695 979L696 980L695 979M697 979L698 980L697 979M699 979L700 980L699 979M701 979L702 980L701 979M703 979L704 980L703 979M541 981L541 982C557.81 986.598 573.687 993.264 591 996.386C630.047 1003.43 664.894 997.033 701 982C688.593 976.794 666.515 981 653 981L541 981z"/>
<path style="fill:#aa6342; stroke:none;" d="M542.667 982.333L543.333 982.667L542.667 982.333M699 982L700 983L699 982M545 983L546 984L545 983M697 983L698 984L697 983M547.667 984.333L548.333 984.667L547.667 984.333M695 984L696 985L695 984M550 985L551 986L550 985M693 985L694 986L693 985M553 986L554 987L553 986M691 986L692 987L691 986M556 987L557 988L556 987M688 987L689 988L688 987M559 988L560 989L559 988M686 988L687 989L686 988M562.667 989.333L563.333 989.667L562.667 989.333M683.667 989.333L684.333 989.667L683.667 989.333M566 990L567 991L566 990M681 990L682 991L681 990M569.667 991.333L570.333 991.667L569.667 991.333M678.667 991.333L679.333 991.667L678.667 991.333M573 992L574 993L573 992M675 992L676 993L675 992M577 993L578 994L577 993M671.667 993.333L672.333 993.667L671.667 993.333M581 994L582 995L581 994M668 994L669 995L668 994M585.667 995.333L586.333 995.667L585.667 995.333M663.667 995.333L664.333 995.667L663.667 995.333M590.667 996.333L591.333 996.667L590.667 996.333M659.667 996.333L660.333 996.667L659.667 996.333M596 997L596 998L599 998L596 997M653 997L653 998L656 998L653 997M604 998L604 999L607 999L604 998M646 998L646 999L650 999L646 998M614 999L614 1000L625 1000L614 999M628 999L628 1000L640 1000L628 999z"/>
<path style="fill:#50609e; stroke:none;" d="M660 999L661 1000L660 999z"/>
</svg>
